# Blender v2.93.4 OBJ File: 'Rock.blend'
# www.blender.org
mtllib Rock.mtl
o Rock4_Cylinder.019
v 6.371278 5.364073 -0.621221
v 5.769854 4.570162 -0.364868
v 5.628887 7.468451 -3.019105
v 5.722960 7.804430 -0.732562
v 4.031395 7.804803 -0.705149
v 4.163372 6.790844 -3.388572
v 2.925383 5.084974 -2.403454
v 4.922559 8.489365 -2.583506
v 4.147229 8.436919 -1.941250
v 6.481323 7.481249 -1.979538
v 6.651523 4.816821 -2.385681
v 4.265372 5.039666 -0.037458
v 3.663977 4.565042 -0.665423
v 3.879313 4.841016 -3.344498
v 5.103699 4.569376 -3.415359
v 5.147813 8.547462 -1.565092
vt 0.580537 0.64285 0.000
vt 0.459686 0.84130 0.000
vt 0.351660 0.65732 0.000
vt 0.210723 0.82003 0.000
vt 0.400652 0.99972 0.000
vt 0.131348 1.00000 0.000
vt 0.093209 0.76692 0.000
vt 0.017439 0.72257 0.000
vt 0.783260 0.07799 0.000
vt 0.827817 0.40824 0.000
vt 0.925681 0.30708 0.000
vt 0.652207 0.88426 0.000
vt 0.766836 0.99874 0.000
vt 0.623919 0.99958 0.000
vt 0.075549 0.99408 0.000
vt 0.131888 0.32858 0.000
vt 0.336901 0.22660 0.000
vt 0.302065 0.41896 0.000
vt 0.259537 1.00000 0.000
vt 0.643316 1.00000 0.000
vt 0.892795 0.99890 0.000
vt 0.957661 1.00000 0.000
vt 1.000000 0.98958 0.000
vt 0.958220 0.66917 0.000
vt 0.632388 0.11842 0.000
vt 0.800339 0.74148 0.000
vt 0.020207 1.00000 0.000
vt 0.478254 0.32416 0.000
vn -0.0916 -0.7502 0.6548
vn -0.9400 0.3314 0.0814
vn -0.2216 -0.9680 -0.1175
vn 0.1835 -0.9822 -0.0398
vn 0.8549 0.2479 0.4557
vn -0.6888 0.0841 -0.7200
vn 0.0158 0.2360 0.9716
vn -0.0966 0.9947 -0.0354
vn -0.2545 0.8705 0.4213
vn 0.5986 0.6269 -0.4986
vn -0.7534 0.0934 0.6509
vn -0.8323 0.3614 -0.4203
vn 0.2010 0.0968 -0.9748
vn 0.0378 0.4142 -0.9094
vn 0.2599 0.1128 0.9590
vn 0.0109 0.7498 0.6616
vn -0.9030 0.1075 0.4159
vn -0.3590 -0.9250 -0.1241
vn 0.0025 -1.0000 -0.0003
vn 0.9887 0.0412 0.1443
vn -0.0608 -0.0137 -0.9981
vn 0.5523 0.0139 -0.8335
vn 0.7643 0.1446 -0.6285
vn 0.2448 0.1130 0.9630
vn 0.6493 0.7324 0.2051
vn -0.5562 0.5457 -0.6268
vn 0.8058 -0.5173 0.2884
vn 0.5814 0.7948 -0.1739
usemtl Rock1_1
s off
f 2/1/1 12/2/1 13/3/1
f 7/4/2 5/5/2 9/6/2
f 13/3/3 14/7/3 15/8/3
f 2/9/4 15/10/4 11/11/4
f 1/12/5 10/13/5 4/14/5
f 7/4/6 6/15/6 14/7/6
f 12/2/7 4/14/7 5/5/7
f 9/16/8 16/17/8 8/18/8
f 9/19/9 5/5/9 16/20/9
f 10/13/10 3/21/10 8/22/10
f 12/2/11 5/5/11 13/3/11
f 9/6/12 6/15/12 7/4/12
f 6/23/13 3/21/13 15/24/13
f 8/22/14 3/21/14 6/23/14
f 1/12/15 4/14/15 2/1/15
f 5/5/16 4/14/16 16/20/16
f 13/3/17 5/5/17 7/4/17
f 13/3/18 7/4/18 14/7/18
f 2/9/19 13/25/19 15/10/19
f 11/26/20 10/13/20 1/12/20
f 15/8/21 14/7/21 6/15/21
f 15/24/22 3/21/22 11/26/22
f 10/13/23 11/26/23 3/21/23
f 2/1/24 4/14/24 12/2/24
f 10/13/25 16/20/25 4/14/25
f 8/27/26 6/15/26 9/6/26
f 2/1/27 11/26/27 1/12/27
f 10/28/28 8/18/28 16/17/28
